<?xml version="1.0"?>
<svg xmlns="http://www.w3.org/2000/svg" xmlns:xlink="http://www.w3.org/1999/xlink" xmlns:svgjs="http://svgjs.com/svgjs" version="1.1" width="512" height="512" x="0" y="0" viewBox="0 0 505 505" style="enable-background:new 0 0 512 512" xml:space="preserve" class=""><g><g xmlns="http://www.w3.org/2000/svg"><g><circle cx="184.754" cy="139.163" fill="#ffffff" r="85.496" data-original="#de5866" style="" class=""/><path d="m497.503 451.337h-490l234.62-295.49 33 54 29.99-6 56.97 82.64 49.53 71.85 16.5-16.5z" fill="#222222" data-original="#526071" style="" class=""/><path d="m179.123 362.947-63 37.5 18.91 50.89h-127.53l234.62-295.49-72 157.6z" fill="#000000" data-original="#3e4a56" style="" class=""/><path d="m362.083 286.487-47.97 47.96-89.99-52.5-54 31.5-28.79-30.66 100.79-126.94 33 54 29.99-6z" fill="#e7e8ed" data-original="#e7e8ed" style="" class=""/><path d="m242.123 155.847-72 157.6-28.79-30.66z" fill="#b7bcc9" data-original="#b7bcc9" style="" class=""/></g><g><path d="m503.835 447.318-69.389-109.495c-1.219-1.924-3.246-3.189-5.51-3.44-2.264-.25-4.518.541-6.128 2.151l-10.131 10.131-101.384-147.077c-1.701-2.467-4.708-3.686-7.646-3.098l-24.86 4.972-30.267-49.526c-1.277-2.09-3.495-3.425-5.94-3.575-2.432-.145-4.809.903-6.333 2.822l-234.62 295.486c-1.79 2.254-2.132 5.333-.88 7.925s3.876 4.239 6.754 4.239h365.114c4.142 0 7.5-3.358 7.5-7.5s-3.358-7.5-7.5-7.5h-349.583l118.774-149.586 22.85 24.334c2.393 2.548 6.228 3.105 9.246 1.345l50.221-29.295 86.211 50.295c1.178.688 2.481 1.022 3.777 1.022 1.94 0 3.86-.751 5.305-2.196l30.003-29.997c2.929-2.928 2.93-7.677.001-10.606-2.928-2.929-7.677-2.93-10.606-.001l-25.915 25.909-84.997-49.586c-2.335-1.363-5.223-1.362-7.558 0l-48.842 28.491-20.269-21.586 90.086-113.455 43.133 70.58c1.414 2.314 3.88 3.59 6.407 3.59 1.333 0 2.683-.355 3.903-1.102 3.535-2.16 4.649-6.776 2.489-10.31l-10.134-16.583 14.629-2.926 103.691 150.426c1.264 1.833 3.277 3.01 5.494 3.212 2.219.198 4.41-.592 5.984-2.166l9.875-9.875 57.077 90.067h-86.252c-4.142 0-7.5 3.358-7.5 7.5s3.358 7.5 7.5 7.5h99.885c2.735 0 5.253-1.489 6.571-3.885s1.228-5.321-.236-7.631z" fill="#000000" data-original="#000000" style="" class=""/><path d="m233.336 382.981-30.901 12.36-16.507-35.554c-.894-1.925-2.562-3.381-4.589-4.008-2.027-.626-4.227-.364-6.049.721l-62.997 37.498c-3.56 2.119-4.728 6.722-2.609 10.281s6.723 4.728 10.281 2.609l55.857-33.249 16 34.461c1.265 2.724 3.967 4.344 6.805 4.343.928 0 1.872-.173 2.783-.538l37.498-14.999c3.846-1.538 5.717-5.903 4.178-9.749-1.539-3.843-5.903-5.716-9.75-4.176z" fill="#000000" data-original="#000000" style="" class=""/><path d="m163.023 229.605c.587.141 1.174.208 1.753.208 3.39 0 6.463-2.313 7.288-5.755.964-4.028-1.519-8.076-5.547-9.041-35.185-8.426-59.758-39.618-59.758-75.854 0-23.764 10.639-45.939 29.188-60.841 3.229-2.594 3.744-7.315 1.149-10.544-2.594-3.229-7.314-3.745-10.544-1.149-22.112 17.764-34.793 44.202-34.793 72.535-.001 43.201 29.305 80.392 71.264 90.441z" fill="#000000" data-original="#000000" style="" class=""/><path d="m154.851 67.103c9.48-3.938 19.541-5.936 29.903-5.936 43.007 0 77.996 34.989 77.996 77.996 0 5.296-.533 10.587-1.584 15.727-.831 4.058 1.786 8.021 5.844 8.851.507.104 1.013.154 1.511.154 3.488 0 6.614-2.447 7.34-5.998 1.253-6.127 1.889-12.43 1.889-18.734 0-51.278-41.718-92.996-92.996-92.996-12.348 0-24.345 2.383-35.658 7.084-3.825 1.589-5.638 5.978-4.048 9.803 1.589 3.826 5.979 5.639 9.803 4.049z" fill="#000000" data-original="#000000" style="" class=""/></g></g></g></svg>
